<svg width="200" height="200" xmlns="http://www.w3.org/2000/svg">
 <!-- Created with Method Draw - http://github.com/duopixel/Method-Draw/ -->
 <g id="Layer_1">
  <title>Layer 1</title>
  <path stroke-width="20" d="m67.5,20c-3,3 -8.39467,8.34695 -25,15c-12.62578,5.05862 -25.47329,6.29366 -29,12c-0.52573,0.85065 -0.48626,3.82375 -1,6c-0.45951,1.9465 -1,4 -1,7c0,1 0.37134,3.74675 3,8c1.17557,1.90211 5.066,5.87766 7,7c3.11848,1.80972 4.90633,3.1034 6,4c2.78832,2.28588 9.17698,5.34518 14,7c4.23007,1.45137 7.04468,2.76137 13,4c4.03672,0.83958 8,3 11,3c5,0 8,0 10,0c2,0 3,0 5,0c0,0 2.47554,0.40691 4,-8c0.53527,-2.95186 0,-5 0,-7c0,-2 -1,-5 -2,-7c-2,-4 -4,-7 -6,-9c-1,-1 -2,-1 -2,-1c-2,1 -3,1 -4,1c0,0 -2,0 -2,1c0,0 2.08582,0.57957 4,0c3.45084,-1.04483 6.87856,-2.49346 10,-3c0.98709,-0.16018 3,-1 3,-1c2,0 3.15224,0.76537 5,0c1.30656,-0.54119 3,-1 6,-1c0,0 1,0 2,0l1,0" id="svg_1" opacity="undefined" stroke="#000" fill="none"/>
  <path stroke-width="20" d="m138.5,82c-1,0 -1.93414,0.14429 -4,1c-2.92157,1.21015 -6.07843,2.78985 -9,4c-2.06586,0.85571 -3,1 -4,2c-2,2 -9.51374,5.82375 -9,8c0.22975,0.97325 1.02675,0.77025 2,1c2.17625,0.51374 4.22936,3.33199 8,5c3.29733,1.45864 6.21167,5.71412 9,8c2.18735,1.79319 3.85274,4.1731 5,5c1.814,1.30745 3.19028,2.88152 5,6c1.12234,1.934 3.4588,3.69344 4,5c0.38269,0.92388 0.48625,1.82375 1,4c0.22975,0.97325 0,5 0,6c0,3 0.703,5.61383 -2,8c-1.67633,1.47984 -4,2 -6,4c-1,1 -2,1 -4,1c-1,0 -2,1 -4,1c-1,0 -1,1 -3,1c-1,0 -4,1 -5,1l-1,0" id="svg_2" opacity="undefined" stroke="#000" fill="none"/>
 </g>
</svg>